<svg  width="24px" height="24px" viewBox="0 0 24 24" xmlns="http://www.w3.org/2000/svg"><g data-name="Layer 2"><g data-name="close"><rect width="24" height="24" transform="rotate(180 12 12)" opacity="0" /><path d="M13.41 12l4.3-4.29a1 1 0 1 0-1.42-1.42L12 10.59l-4.29-4.3a1 1 0 0 0-1.42 1.42l4.3 4.29-4.3 4.29a1 1 0 0 0 0 1.42 1 1 0 0 0 1.42 0l4.29-4.3 4.29 4.3a1 1 0 0 0 1.42 0 1 1 0 0 0 0-1.42z"/></g></g>
 <linearGradient id="logo-gradient1" x2="1" y2="1">
    <stop offset="0%" stop-color="hsla(197, 100%, 63%, 1)" />
   
    <stop offset="100%" stop-color="hsla(294, 100%, 55%, 1)" />
  </linearGradient>
  </svg>